<?xml version="1.0" encoding="UTF-8"?>
<svg id="Icons" xmlns="http://www.w3.org/2000/svg" viewBox="0 0 455.81 752.87">
  <defs>
    <style>
      .cls-1 {
        fill: #ffffff;
        stroke-width: 0px;
      }
    </style>
  </defs>
  <path class="cls-1" d="M403.68,448.72c-5.32,5.28-10.63,7.03-17.7,7.01l-286.38-.99c-7.07-.02-12.37-1.81-17.65-7.13-5.28-5.32-7.03-10.63-7.01-17.7l.09-24.75c.16-45.96,30.34-82.98,72.8-93.44l.75-215.67c.1-28.28,14.34-56.52,35.61-74.12C207.24,2.56,235.55-4.41,263.81,2.75c44.16,8.99,77.61,49.77,77.44,99.26l-.74,212.13c15.89,5.36,30.01,12.48,42.34,24.9,17.62,17.74,28.14,42.52,28.05,67.27l-.09,24.75c-.02,7.07-3.58,14.13-7.13,17.65Z"/>
  <path class="cls-1" d="M385.81,505.23l-286.38-.99c-3.54-.01-7.07-.02-12.37-1.81-7.33,74.22-37.64,150.13-82.04,208.31-5.33,8.82-7.13,17.65-1.86,26.51,5.27,8.86,14.09,14.19,21.16,14.22l406.58,1.41c7.07.02,12.38-1.72,17.7-7.01l1.77-1.76c5.32-5.28,7.12-14.12,3.61-21.2l-46.96-221.14c-3.55,3.52-12.39,5.26-21.23,3.46Z"/>
</svg>