<?xml version="1.0" encoding="UTF-8"?>
<svg id="Layer_1" data-name="Layer 1" xmlns="http://www.w3.org/2000/svg" viewBox="0 0 75.02 69.26">
  <defs>
    <style>
      .cls-1 {
        fill: #ffffff;
        stroke-width: 0px;
      }
    </style>
  </defs>
  <path class="cls-1" d="M53.16.67L12.13,41.7c-.21.21-.21.55,0,.77l20.42,20.42c.21.21.55.21.77,0l2.04-2.04,2.63,2.63c.21.21.55.21.77,0,0,0,0,0,0,0l12.58-12.58c.21-.21.21-.55,0-.77h0l-2.63-2.63,1.03-1.03,2.63,2.63c.21.21.55.21.77,0h0l18.02-18.02c.21-.21.21-.55,0-.77l-2.63-2.63,5.82-5.82c.9-.9.9-2.36,0-3.26L56.41.67c-.9-.9-2.36-.9-3.26,0ZM67.42,15c.32.32.32.83,0,1.15-.32.32-.83.32-1.15,0-.32-.32-.32-.83,0-1.15.32-.32.83-.32,1.15,0ZM32.36,58.23c.32-.32.83-.32,1.15,0,.32.32.32.83,0,1.15-.32.32-.83.32-1.15,0-.32-.32-.32-.83,0-1.15,0,0,0,0,0,0ZM15.64,42.66c-.32-.32-.32-.83,0-1.15.32-.32.83-.32,1.15,0s.32.83,0,1.15c0,0,0,0,0,0-.32.32-.83.32-1.15,0h0ZM27.66,47.36c-4.23-4.23-4.23-11.09,0-15.32,4.23-4.23,11.09-4.23,15.32,0s4.23,11.09,0,15.32h0c-4.23,4.23-11.09,4.23-15.32,0h0ZM46.33,28.69c-4.23-4.23-4.23-11.09,0-15.32,4.23-4.23,11.09-4.23,15.32,0,4.23,4.23,4.23,11.09,0,15.32h0c-4.23,4.23-11.09,4.23-15.32,0Z"/>
  <path class="cls-1" d="M40.56,33.96l-1.92,1.74.15-3.14c.01-.23-.12-.44-.34-.53-1.61-.66-3.38-.79-5.07-.38-.29.07-.46.35-.4.64l.54,2.54-2.64-1.7c-.19-.12-.44-.11-.63.03-.28.21-.54.45-.78.69-.98.98-1.7,2.19-2.09,3.51-.08.28.07.58.35.67l2.47.8-2.79,1.44c-.2.1-.32.33-.29.55.23,1.73,1.01,3.33,2.21,4.59.2.21.54.23.75.03l1.92-1.74-.15,3.14c-.01.23.12.44.34.53,1.61.66,3.39.79,5.08.39.29-.07.46-.35.4-.64l-.54-2.54,2.64,1.7c.19.12.44.11.63-.03.27-.21.54-.44.78-.69.98-.98,1.7-2.19,2.09-3.52.08-.28-.08-.58-.35-.67l-2.47-.8,2.79-1.44c.2-.11.32-.33.29-.55-.23-1.72-1-3.33-2.21-4.59-.2-.21-.54-.23-.75-.03Z"/>
  <path class="cls-1" d="M59.23,15.3l-1.92,1.74.15-3.14c.01-.23-.12-.44-.34-.53-1.61-.66-3.38-.79-5.07-.38-.29.07-.46.35-.4.64l.54,2.54-2.64-1.7c-.19-.12-.44-.11-.63.03-.28.21-.54.45-.79.69-.98.98-1.7,2.19-2.09,3.51-.08.28.07.58.35.67l2.47.8-2.79,1.44c-.2.1-.32.33-.29.55.23,1.73,1.01,3.33,2.21,4.59.2.21.54.23.75.03l1.92-1.74-.15,3.14c-.01.23.12.44.34.53,1.61.66,3.39.79,5.08.39.29-.07.46-.35.4-.64l-.54-2.54,2.64,1.7c.19.12.44.11.63-.03.27-.21.54-.44.78-.69.98-.98,1.7-2.19,2.09-3.52.08-.28-.08-.58-.35-.67l-2.47-.8,2.79-1.44c.2-.11.32-.33.29-.55-.23-1.72-1-3.33-2.21-4.59-.2-.21-.54-.23-.75-.03Z"/>
  <path class="cls-1" d="M3.78,38.75l-.5.5-3.12,3.12c-.21.21-.21.55,0,.77l1.67,1.67c.21.21.55.21.77,0,0,0,0,0,0,0l2.74-2.74,5.07,5.07-2,2c-.21.21-.21.55,0,.77l5.44,5.44c.21.21.55.21.77,0l2-2,1.18,1.18-2,2c-.21.21-.21.55,0,.77l9.34,9.34c.21.21.55.21.77,0,0,0,0,0,0,0l2-2,4.48,4.48c.21.21.55.21.77,0,0,0,0,0,0,0l1.67-1.67c.21-.21.21-.55,0-.77,0,0,0,0,0,0L7.38,39.25l-.5-.5c-.86-.86-2.25-.86-3.1,0,0,0,0,0,0,0Z"/>
</svg>