<?xml version="1.0" encoding="UTF-8"?>
<svg id="Layer_1" data-name="Layer 1" xmlns="http://www.w3.org/2000/svg" viewBox="0 0 69.79 42.32">
  <defs>
    <style>
      .cls-1 {
        fill: #ffffff;
        stroke-width: 0px;
      }
    </style>
  </defs>
  <path class="cls-1" d="M67.49,8.11l-58.02-.1c-.3,0-.54.24-.54.54l-.05,28.88c0,.3.24.54.54.54h2.89s0,3.72,0,3.72c0,.3.24.54.54.54,0,0,0,0,0,0l17.79.03c.3,0,.54-.24.54-.54h0s0-3.72,0-3.72h1.45s0,3.72,0,3.72c0,.3.24.54.54.54h0l25.49.05c.3,0,.54-.24.54-.54v-3.72s8.24.01,8.24.01c1.27,0,2.31-1.03,2.31-2.3l.05-25.36c0-1.27-1.03-2.3-2.3-2.31ZM67.41,28.32c0,.45-.37.81-.81.81-.45,0-.81-.36-.81-.81,0-.45.36-.81.81-.81.45,0,.81.37.81.81ZM12.04,34.01c.45,0,.81.37.81.81,0,.45-.37.81-.81.81-.45,0-.81-.36-.81-.81,0-.45.36-.81.81-.81,0,0,0,0,0,0ZM11.27,11.17c0-.45.36-.81.81-.81.45,0,.81.36.81.81s-.36.81-.81.81c0,0,0,0,0,0-.45,0-.81-.36-.81-.81h0ZM16.42,23c.01-5.98,4.87-10.83,10.86-10.82,5.98.01,10.83,4.87,10.82,10.86s-4.87,10.83-10.86,10.82h0c-5.98-.01-10.83-4.87-10.82-10.86h0ZM42.82,23.05c.01-5.98,4.87-10.83,10.86-10.82,5.98.01,10.83,4.87,10.82,10.86-.01,5.98-4.87,10.83-10.86,10.82h0c-5.98-.01-10.83-4.87-10.82-10.86Z"/>
  <path class="cls-1" d="M35.02,22.68l-2.59-.14,2.33-2.11c.17-.15.22-.4.14-.61-.67-1.6-1.83-2.96-3.31-3.86-.25-.15-.58-.08-.74.17l-1.41,2.17-.66-3.07c-.05-.22-.23-.39-.46-.42-.35-.04-.7-.07-1.05-.07-1.38,0-2.75.34-3.96,1-.26.14-.36.46-.22.72l1.18,2.31-2.99-.96c-.22-.07-.46,0-.6.19-1.06,1.38-1.65,3.07-1.69,4.81,0,.29.22.54.51.55l2.59.14-2.33,2.11c-.17.15-.22.4-.14.61.67,1.61,1.83,2.96,3.31,3.87.25.15.58.08.74-.17l1.41-2.18.66,3.07c.05.23.23.4.46.42.35.04.69.07,1.04.07,1.39,0,2.75-.34,3.97-1,.26-.14.35-.46.22-.72l-1.18-2.31,2.99.96c.22.07.46,0,.6-.19,1.06-1.38,1.65-3.06,1.69-4.8,0-.29-.22-.54-.51-.55Z"/>
  <path class="cls-1" d="M61.42,22.73l-2.59-.14,2.33-2.11c.17-.15.22-.4.14-.61-.67-1.6-1.83-2.96-3.31-3.86-.25-.15-.58-.08-.74.17l-1.41,2.17-.66-3.07c-.05-.22-.23-.39-.46-.42-.35-.04-.7-.07-1.05-.07-1.38,0-2.75.34-3.96,1-.26.14-.36.46-.22.72l1.18,2.31-2.99-.96c-.22-.07-.46,0-.6.19-1.06,1.38-1.65,3.07-1.69,4.81,0,.29.22.54.51.55l2.59.14-2.33,2.11c-.17.15-.22.4-.14.61.67,1.61,1.83,2.96,3.31,3.87.25.15.58.08.74-.17l1.41-2.18.66,3.07c.05.23.23.4.46.42.34.04.69.07,1.04.07,1.39,0,2.75-.34,3.97-1,.26-.14.35-.46.22-.72l-1.18-2.31,2.99.96c.22.07.46,0,.6-.19,1.06-1.38,1.65-3.06,1.69-4.8,0-.29-.22-.54-.51-.55Z"/>
  <path class="cls-1" d="M5.67,0h-.7S.55,0,.55,0C.25,0,0,.24,0,.54v2.36c0,.3.24.54.54.54,0,0,0,0,0,0h3.88s-.01,7.17-.01,7.17H1.57c-.3,0-.54.24-.54.54v7.69c-.01.3.23.54.53.54h2.83s0,1.68,0,1.68H1.55c-.3,0-.54.24-.54.54l-.02,13.2c0,.3.24.54.54.54,0,0,0,0,0,0h2.83s-.01,6.34-.01,6.34c0,.3.24.54.54.54,0,0,0,0,0,0h2.36c.3,0,.54-.24.54-.54,0,0,0,0,0,0l.07-38.78v-.7C7.86,1,6.88.01,5.67,0c0,0,0,0,0,0Z"/>
</svg>