<?xml version="1.0" encoding="iso-8859-1"?>
<!-- Uploaded to: SVG Repo, www.svgrepo.com, Generator: SVG Repo Mixer Tools -->
<svg fill="#ffffff" version="1.1" id="Layer_1" xmlns="http://www.w3.org/2000/svg" xmlns:xlink="http://www.w3.org/1999/xlink" 
	viewBox="0 0 511.999 511.999" xml:space="preserve">
<g>
	<g>
		<path d="M490.667,63.999h-64V42.666c0-11.776-9.536-21.333-21.333-21.333s-21.333,9.557-21.333,21.333v21.333h-21.333V42.666
			c0-11.776-9.536-21.333-21.333-21.333s-21.333,9.557-21.333,21.333v21.333h-21.333V42.666c0-11.776-9.536-21.333-21.333-21.333
			s-21.333,9.557-21.333,21.333v21.333h-42.667v192c0,11.776-9.536,21.333-21.333,21.333s-21.333-9.557-21.333-21.333v-192H128
			v149.333c0,11.776-9.536,21.333-21.333,21.333s-21.333-9.557-21.333-21.333V63.999h-64C9.536,63.999,0,73.557,0,85.333v384
			c0,11.776,9.536,21.333,21.333,21.333h469.333c11.797,0,21.333-9.557,21.333-21.333v-384
			C512,73.557,502.464,63.999,490.667,63.999z M384,405.333h-85.333c-11.797,0-21.333-9.557-21.333-21.333
			s9.536-21.333,21.333-21.333H384c11.797,0,21.333,9.557,21.333,21.333S395.797,405.333,384,405.333z M405.334,320h-128
			C265.536,320,256,310.443,256,298.667v-128c0-11.776,9.536-21.333,21.333-21.333h128c11.797,0,21.333,9.557,21.333,21.333v128
			h0.001C426.667,310.443,417.131,320,405.334,320z"/>
	</g>
</g>
<g>
	<g>
		<rect x="298.67" y="191.999" width="85.33" height="85.33"/>
	</g>
</g>
</svg>