<?xml version="1.0" encoding="UTF-8"?>
<svg id="Layer_1" data-name="Layer 1" xmlns="http://www.w3.org/2000/svg" viewBox="0 0 666.67 666.67">
  <defs>
    <style>
      .cls-1 {
        fill: #ffffff;
        stroke-width: 0px;
      }
    </style>
  </defs>
  <path class="cls-1" d="M644.6,340.44l-554.14-.96c-2.87,0-5.16,2.29-5.16,5.16l-.48,275.83c0,2.87,2.29,5.16,5.16,5.16h27.6v35.53c0,2.87,2.29,5.16,5.16,5.16h0l169.91.29c2.87,0,5.16-2.29,5.16-5.16h0v-35.53h13.85v35.53c0,2.87,2.29,5.16,5.16,5.16h0l243.45.48c2.87,0,5.16-2.29,5.16-5.16v-35.53l78.7.1c12.13,0,22.06-9.84,22.06-21.97l.48-242.21c0-12.13-9.84-21.97-21.97-22.06l-.1.19ZM643.84,533.46c0,4.3-3.53,7.74-7.74,7.74s-7.74-3.44-7.74-7.74,3.44-7.74,7.74-7.74,7.74,3.53,7.74,7.74ZM115.01,587.81c4.3,0,7.74,3.53,7.74,7.74s-3.53,7.74-7.74,7.74-7.74-3.44-7.74-7.74,3.44-7.74,7.74-7.74h0ZM107.66,369.67c0-4.3,3.44-7.74,7.74-7.74s7.74,3.44,7.74,7.74-3.44,7.74-7.74,7.74h0c-4.3,0-7.74-3.44-7.74-7.74h0ZM156.85,482.65c.1-57.11,46.51-103.44,103.72-103.34,57.11.1,103.44,46.51,103.34,103.72-.1,57.21-46.51,103.44-103.72,103.34h0c-57.11-.1-103.44-46.51-103.34-103.72h0ZM408.99,483.13c.1-57.11,46.51-103.44,103.72-103.34,57.11.1,103.44,46.51,103.34,103.72-.1,57.11-46.51,103.44-103.72,103.34h0c-57.11-.1-103.44-46.51-103.34-103.72Z"/>
  <path class="cls-1" d="M334.49,479.6l-24.74-1.34,22.25-20.15c1.62-1.43,2.1-3.82,1.34-5.83-6.4-15.28-17.48-28.27-31.61-36.87-2.39-1.43-5.54-.76-7.07,1.62l-13.47,20.73-6.3-29.32c-.48-2.1-2.2-3.72-4.39-4.01-3.34-.38-6.69-.67-10.03-.67-13.18,0-26.26,3.25-37.82,9.55-2.48,1.34-3.44,4.39-2.1,6.88l11.27,22.06-28.56-9.17c-2.1-.67-4.39,0-5.73,1.81-10.12,13.18-15.76,29.32-16.14,45.94,0,2.77,2.1,5.16,4.87,5.25l24.74,1.34-22.25,20.15c-1.62,1.43-2.1,3.82-1.34,5.83,6.4,15.38,17.48,28.27,31.61,36.96,2.39,1.43,5.54.76,7.07-1.62l13.47-20.82,6.3,29.32c.48,2.2,2.2,3.82,4.39,4.01,3.34.38,6.59.67,9.93.67,13.28,0,26.26-3.25,37.92-9.55,2.48-1.34,3.34-4.39,2.1-6.88l-11.27-22.06,28.56,9.17c2.1.67,4.39,0,5.73-1.81,10.12-13.18,15.76-29.23,16.14-45.84,0-2.77-2.1-5.16-4.87-5.25v-.1Z"/>
  <path class="cls-1" d="M586.63,480.08l-24.74-1.34,22.25-20.15c1.62-1.43,2.1-3.82,1.34-5.83-6.4-15.28-17.48-28.27-31.61-36.87-2.39-1.43-5.54-.76-7.07,1.62l-13.47,20.73-6.3-29.32c-.48-2.1-2.2-3.72-4.39-4.01-3.34-.38-6.69-.67-10.03-.67-13.18,0-26.26,3.25-37.82,9.55-2.48,1.34-3.44,4.39-2.1,6.88l11.27,22.06-28.56-9.17c-2.1-.67-4.39,0-5.73,1.81-10.12,13.18-15.76,29.32-16.14,45.94,0,2.77,2.1,5.16,4.87,5.25l24.74,1.34-22.25,20.15c-1.62,1.43-2.1,3.82-1.34,5.83,6.4,15.38,17.48,28.27,31.61,36.96,2.39,1.43,5.54.76,7.07-1.62l13.47-20.82,6.3,29.32c.48,2.2,2.2,3.82,4.39,4.01,3.25.38,6.59.67,9.93.67,13.28,0,26.26-3.25,37.92-9.55,2.48-1.34,3.34-4.39,2.1-6.88l-11.27-22.06,28.56,9.17c2.1.67,4.39,0,5.73-1.81,10.12-13.18,15.76-29.23,16.14-45.84,0-2.77-2.1-5.16-4.87-5.25v-.1Z"/>
  <path class="cls-1" d="M54.17,262.99H5.27c-2.87,0-5.25,2.29-5.25,5.16v22.54c0,2.87,2.29,5.16,5.16,5.16h37.06l-.1,68.48H15.02c-2.87,0-5.16,2.29-5.16,5.16v73.45c-.1,2.87,2.2,5.16,5.06,5.16h27.03v16.05H14.82c-2.87,0-5.16,2.29-5.16,5.16l-.19,126.07c0,2.87,2.29,5.16,5.16,5.16h27.03l-.1,60.55c0,2.87,2.29,5.16,5.16,5.16h22.54c2.87,0,5.16-2.29,5.16-5.16h0l.67-370.38v-6.69c0-11.46-9.36-20.92-20.92-21.01h0Z"/>
</svg>