<?xml version="1.0" encoding="UTF-8"?>
<svg id="Layer_1" data-name="Layer 1" xmlns="http://www.w3.org/2000/svg" viewBox="0 0 666.67 666.67">
  <defs>
    <style>
      .cls-1 {
        fill: #ffffff;
        stroke-width: 0px;
      }
    </style>
  </defs>
  <path class="cls-1" d="M638.94,112.09h-83.19v-27.73c0-15.31-12.39-27.73-27.73-27.73s-27.73,12.42-27.73,27.73v27.73h-27.73v-27.73c0-15.31-12.39-27.73-27.73-27.73s-27.73,12.42-27.73,27.73v27.73h-27.73v-27.73c0-15.31-12.39-27.73-27.73-27.73s-27.73,12.42-27.73,27.73v27.73h-55.46v249.56c0,15.31-12.39,27.73-27.73,27.73s-27.73-12.42-27.73-27.73V112.09h-55.46v194.1c0,15.31-12.39,27.73-27.73,27.73s-27.73-12.42-27.73-27.73V112.09H28.91c-15.33,0-27.73,12.42-27.73,27.73v499.12c0,15.31,12.39,27.73,27.73,27.73h610.03c15.33,0,27.73-12.42,27.73-27.73V139.82c0-15.31-12.39-27.73-27.73-27.73ZM500.3,555.75h-110.91c-15.33,0-27.73-12.42-27.73-27.73s12.39-27.73,27.73-27.73h110.91c15.33,0,27.73,12.42,27.73,27.73s-12.39,27.73-27.73,27.73ZM528.03,444.84h-166.37c-15.33,0-27.73-12.42-27.73-27.73v-166.37c0-15.31,12.39-27.73,27.73-27.73h166.37c15.33,0,27.73,12.42,27.73,27.73v166.37h0c0,15.31-12.39,27.73-27.73,27.73Z"/>
  <rect class="cls-1" x="389.38" y="278.46" width="110.91" height="110.91"/>
</svg>