<?xml version="1.0" encoding="UTF-8"?>
<svg id="Layer_1" data-name="Layer 1" xmlns="http://www.w3.org/2000/svg" viewBox="0 0 666.67 666.67">
  <defs>
    <style>
      .cls-1 {
        fill: #ffffff;
        stroke-width: 0px;
      }
    </style>
  </defs>
  <path class="cls-1" d="M217.46,19.52c0-10.78-8.74-19.52-19.51-19.52h-7.18c-10.77,0-19.51,8.74-19.51,19.52v53.99h46.2V19.52h0Z"/>
  <path class="cls-1" d="M309.83,19.52c0-10.78-8.74-19.52-19.51-19.52h-7.17c-10.77,0-19.51,8.74-19.51,19.52v53.99h46.18V19.52h0Z"/>
  <path class="cls-1" d="M402.21,19.52c0-10.78-8.74-19.52-19.51-19.52h-7.17c-10.77,0-19.51,8.74-19.51,19.52v53.99h46.18V19.52Z"/>
  <path class="cls-1" d="M494.6,19.52c0-10.78-8.74-19.52-19.51-19.52h-7.18c-10.77,0-19.51,8.74-19.51,19.52v53.99h46.2V19.52Z"/>
  <path class="cls-1" d="M171.26,647.14c0,10.78,8.74,19.52,19.51,19.52h7.18c10.77,0,19.51-8.74,19.51-19.52v-53.98h-46.2v53.98h0Z"/>
  <path class="cls-1" d="M263.65,647.14c0,10.78,8.74,19.52,19.51,19.52h7.17c10.77,0,19.51-8.74,19.51-19.52v-53.98h-46.18v53.98h0Z"/>
  <path class="cls-1" d="M356.03,647.14c0,10.78,8.74,19.52,19.51,19.52h7.17c10.77,0,19.51-8.74,19.51-19.52v-53.98h-46.18v53.98Z"/>
  <path class="cls-1" d="M448.41,647.14c0,10.78,8.74,19.52,19.51,19.52h7.18c10.77,0,19.51-8.74,19.51-19.52v-53.98h-46.2v53.98Z"/>
  <path class="cls-1" d="M646.76,171.66h-53.99v46.2h53.99c10.77,0,19.51-8.74,19.51-19.52v-7.15c0-10.78-8.74-19.52-19.51-19.52Z"/>
  <path class="cls-1" d="M646.76,264.05h-53.99v46.18h53.99c10.77,0,19.51-8.74,19.51-19.51v-7.15c0-10.78-8.74-19.52-19.51-19.52Z"/>
  <path class="cls-1" d="M646.76,356.43h-53.99v46.18h53.99c10.77,0,19.51-8.74,19.51-19.52v-7.15c0-10.77-8.74-19.51-19.51-19.51Z"/>
  <path class="cls-1" d="M646.76,448.81h-53.99v46.2h53.99c10.77,0,19.51-8.74,19.51-19.52v-7.15c0-10.78-8.74-19.52-19.51-19.52Z"/>
  <path class="cls-1" d="M-.4,191.18v7.15c0,10.78,8.74,19.52,19.51,19.52h54.01v-46.2H19.11c-10.77,0-19.51,8.74-19.51,19.52Z"/>
  <path class="cls-1" d="M-.4,283.57v7.15c0,10.77,8.74,19.51,19.51,19.51h54.01v-46.18H19.11c-10.77,0-19.51,8.74-19.51,19.52Z"/>
  <path class="cls-1" d="M-.4,375.94v7.15c0,10.78,8.74,19.52,19.51,19.52h54.01v-46.18H19.11c-10.77,0-19.51,8.74-19.51,19.51Z"/>
  <path class="cls-1" d="M-.4,468.33v7.15c0,10.78,8.74,19.52,19.51,19.52h54.01v-46.2H19.11c-10.77,0-19.51,8.74-19.51,19.52Z"/>
  <rect class="cls-1" x="101.98" y="102.38" width="461.92" height="461.92"/>
</svg>