<?xml version="1.0" encoding="UTF-8"?>
<svg id="Layer_1" data-name="Layer 1" xmlns="http://www.w3.org/2000/svg" viewBox="0 0 666.67 666.67">
  <defs>
    <style>
      .cls-1 {
        fill: #ffffff;
        stroke-width: 0px;
      }
    </style>
  </defs>
  <path class="cls-1" d="M640.83,596.67h25.83v-122.5h-45c-4.17,0-7.5-3.33-7.5-7.5v-8.33H0v78.33c14.17,0,25.83,11.67,25.83,25.83s-11.67,25.83-25.83,25.83v78.33h613.33v-8.33c0-4.17,3.33-7.5,7.5-7.5h45.83v-34.17h-25.83c-4.17,0-7.5-3.33-7.5-7.5v-2.5c-.83-6.67,2.5-10,7.5-10ZM645,480h14.17c1.67,0,3.33,1.67,3.33,3.33s-1.67,3.33-3.33,3.33h-14.17c-1.67,0-3.33-1.67-3.33-3.33s1.67-3.33,3.33-3.33ZM645,490h14.17c1.67,0,3.33,1.67,3.33,3.33s-1.67,3.33-3.33,3.33h-14.17c-1.67,0-3.33-1.67-3.33-3.33s1.67-3.33,3.33-3.33ZM645,500.83h14.17c1.67,0,3.33,1.67,3.33,3.33s-1.67,3.33-3.33,3.33h-14.17c-1.67,0-3.33-1.67-3.33-3.33s1.67-3.33,3.33-3.33ZM645,510.83h14.17c1.67,0,3.33,1.67,3.33,3.33s-1.67,3.33-3.33,3.33h-14.17c-1.67,0-3.33-1.67-3.33-3.33s1.67-3.33,3.33-3.33ZM645,521.67h14.17c1.67,0,3.33,1.67,3.33,3.33,0,.83,0,1.67-.83,2.5s-1.67.83-2.5.83h-14.17c-.83,0-1.67,0-2.5-.83-.83-.83-.83-1.67-.83-2.5,0-1.67,1.67-3.33,3.33-3.33ZM645,531.67h14.17c1.67,0,3.33,1.67,3.33,3.33s-1.67,3.33-3.33,3.33h-14.17c-1.67,0-3.33-1.67-3.33-3.33s1.67-3.33,3.33-3.33ZM645,541.67h14.17c1.67,0,3.33,1.67,3.33,3.33s-1.67,3.33-3.33,3.33h-14.17c-1.67,0-3.33-1.67-3.33-3.33s1.67-3.33,3.33-3.33ZM645,552.5h14.17c1.67,0,3.33,1.67,3.33,3.33,0,.83,0,1.67-.83,2.5s-1.67.83-2.5.83h-14.17c-.83,0-1.67,0-2.5-.83-.83-.83-.83-1.67-.83-2.5,0-1.67,1.67-3.33,3.33-3.33ZM645,562.5h14.17c1.67,0,3.33,1.67,3.33,3.33s-1.67,4.17-3.33,4.17h-14.17c-1.67,0-3.33-1.67-3.33-3.33s1.67-4.17,3.33-4.17ZM641.67,576.67c0-1.67,1.67-3.33,3.33-3.33h14.17c1.67,0,3.33,1.67,3.33,3.33h0c0,.83,0,1.67-.83,2.5s-1.67.83-2.5.83h-14.17c-.83,0-1.67,0-2.5-.83,0-.83-.83-1.67-.83-2.5h0ZM641.67,587.5c0-1.67,1.67-3.33,3.33-3.33h14.17c1.67,0,3.33,1.67,3.33,3.33h0c0,1.67-1.67,3.33-3.33,3.33h-14.17c-1.67,0-3.33-1.67-3.33-3.33h0ZM8.33,604.17v-10.83c14.17-3.33,25-16.67,25-31.67s-10.83-28.33-25-31.67v-10.83c20,4.17,35,21.67,35,42.5s-15,38.33-35,42.5ZM617.5,642.5h-2.5v-162.5h2.5v162.5ZM645,618.33h14.17c1.67,0,3.33,1.67,3.33,3.33s-1.67,3.33-3.33,3.33h-14.17c-1.67,0-3.33-1.67-3.33-3.33s1.67-3.33,3.33-3.33ZM641.67,632.5c0-1.67,1.67-3.33,3.33-3.33h14.17c1.67,0,3.33,1.67,3.33,3.33h0c0,.83,0,1.67-.83,2.5s-1.67.83-2.5.83h-14.17c-.83,0-1.67,0-2.5-.83,0-.83-.83-1.67-.83-2.5h0ZM641.67,642.5c0-1.67,1.67-3.33,3.33-3.33h14.17c1.67,0,3.33,1.67,3.33,3.33h0c0,1.67-1.67,3.33-3.33,3.33h-14.17c-1.67.83-3.33-.83-3.33-3.33h0Z"/>
</svg>