<?xml version="1.0" encoding="UTF-8"?>
<svg id="Layer_1" data-name="Layer 1" xmlns="http://www.w3.org/2000/svg" viewBox="0 0 666.67 666.67">
  <defs>
    <style>
      .cls-1 {
        fill: #ffffff;
        stroke-width: 0px;
      }
    </style>
  </defs>
  <path class="cls-1" d="M666.67,500.91v111.11c0,30.68-24.87,55.56-55.56,55.56H55.56c-30.68,0-55.56-24.87-55.56-55.56v-111.11c0-30.68,24.87-55.56,55.56-55.56h555.56c30.68,0,55.56,24.87,55.56,55.56ZM611.11,408.31c12.23-.01,24.34,2.41,35.62,7.14l-111.72-167.58c-10.3-15.46-27.65-24.74-46.23-24.74H177.88c-18.57,0-35.92,9.28-46.22,24.74L19.93,415.45c11.28-4.72,23.39-7.15,35.62-7.14h555.56ZM555.56,519.42c-20.45,0-37.04,16.58-37.04,37.04s16.58,37.04,37.04,37.04,37.04-16.58,37.04-37.04-16.58-37.04-37.04-37.04ZM444.44,519.42c-20.45,0-37.04,16.58-37.04,37.04s16.58,37.04,37.04,37.04,37.04-16.58,37.04-37.04-16.58-37.04-37.04-37.04Z"/>
</svg>