<?xml version="1.0" encoding="UTF-8"?>
<svg id="Layer_1" data-name="Layer 1" xmlns="http://www.w3.org/2000/svg" viewBox="0 0 666.67 666.67">
  <defs>
    <style>
      .cls-1 {
        fill: #ffffff;
        stroke-width: 0px;
      }
    </style>
  </defs>
  <path class="cls-1" d="M666.26,336.6v-36.37c0-18.4-14.92-33.31-33.31-33.31H33.31c-18.4,0-33.31,14.92-33.31,33.31v36.37c19.36,6.88,33.31,25.18,33.31,46.91s-13.95,40.03-33.31,46.91v103h666.26v-103c-19.36-6.88-33.31-25.18-33.31-46.91s13.95-40.03,33.31-46.91ZM233.19,466.79h-66.63v-133.25h66.63v133.25ZM366.45,466.79h-66.63v-133.25h66.63v133.25ZM499.7,466.79h-66.63v-133.25h66.63v133.25ZM0,666.67h66.63v-27.76c0-9.2,7.45-16.66,16.66-16.66s16.66,7.45,16.66,16.66v27.76h133.25v-27.76c0-9.2,7.45-16.66,16.66-16.66s16.66,7.45,16.66,16.66v27.76h133.25v-27.76c0-9.2,7.45-16.66,16.66-16.66s16.66,7.45,16.66,16.66v27.76h133.25v-27.76c0-9.2,7.45-16.66,16.66-16.66s16.66,7.45,16.66,16.66v27.76h66.63v-99.94H0v99.94Z"/>
</svg>