<?xml version="1.0" encoding="UTF-8"?>
<svg id="Layer_1" data-name="Layer 1" xmlns="http://www.w3.org/2000/svg" viewBox="0 0 666.67 666.67">
  <defs>
    <style>
      .cls-1 {
        fill: none;
        stroke: #ffffff;
        stroke-linecap: round;
        stroke-linejoin: round;
        stroke-width: 25px;
      }

      .cls-2 {
        fill: #ffffff;
        stroke-width: 0px;
      }
    </style>
  </defs>
  <path class="cls-1" d="M633.33,333.33c0,165.69-134.31,300-300,300S33.33,499.02,33.33,333.33,167.65,33.33,333.33,33.33s300,134.31,300,300Z"/>
  <path class="cls-2" d="M477.65,270.28l67.09,61.32c8.11,7.51,5.79,13.31-5.2,13.31h-50.32v160.21c0,10.99-9.25,20.82-20.25,20.82h-87.34v-112.22c0-10.99-9.83-20.82-20.82-20.82h-54.95c-10.99,0-20.82,9.83-20.82,20.82v112.22h-87.34c-10.99,0-20.82-9.83-20.82-20.82v-160.21h-49.75c-10.99,0-13.31-5.79-5.2-13.31l196.08-178.15c8.11-7.51,21.99-7.51,30.65,0l44.53,39.9v-31.82c0-10.99,9.83-20.82,20.82-20.82h43.38c10.99,0,20.25,9.83,20.25,20.82v108.74h.02Z"/>
</svg>