<?xml version="1.0" encoding="UTF-8"?>
<svg id="Layer_1" data-name="Layer 1" xmlns="http://www.w3.org/2000/svg" viewBox="0 0 666.67 666.67">
  <defs>
    <style>
      .cls-1 {
        fill: none;
        stroke: #ffffff;
        stroke-linecap: round;
        stroke-linejoin: round;
        stroke-width: 25px;
      }

      .cls-2 {
        fill: #ffffff;
        stroke-width: 0px;
      }
    </style>
  </defs>
  <path class="cls-1" d="M633.33,333.33c0,165.69-134.31,300-300,300S33.33,499.02,33.33,333.33,167.65,33.33,333.33,33.33s300,134.31,300,300Z"/>
  <path class="cls-2" d="M345.77,183.98c3.2,1.85,5.65,4.55,8.23,7.15.65.64,1.3,1.28,1.96,1.95,2.17,2.15,4.32,4.32,6.47,6.48,1.55,1.55,3.11,3.09,4.66,4.64,3.78,3.76,7.54,7.53,11.31,11.3,3.06,3.07,6.12,6.12,9.18,9.18.44.44.88.88,1.32,1.32.88.88,1.77,1.77,2.66,2.65,8.31,8.29,16.6,16.59,24.89,24.89,7.59,7.6,15.19,15.19,22.8,22.78,7.81,7.79,15.61,15.58,23.41,23.39.88.88,1.76,1.76,2.64,2.64l1.31,1.31c3.06,3.06,6.12,6.12,9.19,9.17,3.73,3.72,7.45,7.45,11.18,11.18,1.9,1.91,3.8,3.8,5.71,5.7,2.06,2.05,4.11,4.11,6.16,6.18.61.6,1.23,1.21,1.85,1.83.62.62,1.17,1.18,1.65,1.68.48.5.96.98,1.44,1.44.6.94.88,1.94.83,3.01-.92,2.05-2.04,3.26-3.63,4.85-.62.63-1.26,1.27-1.9,1.91-.7.69-1.4,1.38-2.11,2.09-.73.74-1.47,1.48-2.22,2.23-2.04,2.05-4.09,4.09-6.13,6.13-2.21,2.2-4.4,4.41-6.61,6.62-4.32,4.32-8.64,8.65-12.96,12.96-3.51,3.51-7.03,7.02-10.55,10.54l-1.52,1.52c-1.01,1.01-2.03,2.03-3.04,3.05-9.52,9.53-19.06,19.05-28.59,28.58-8.18,8.16-16.35,16.34-24.51,24.51-9.48,9.49-18.97,18.98-28.46,28.46l-3.04,3.04-1.51,1.51c-3.5,3.5-7.01,7.01-10.51,10.52-4.27,4.28-8.55,8.56-12.84,12.83-2.18,2.17-4.36,4.36-6.55,6.55-2.37,2.38-4.74,4.74-7.11,7.1-.68.68-1.36,1.37-2.06,2.08-9.06,8.97-17.93,14.62-30.92,14.78-16.67-.23-26.52-10.33-37.61-21.46-1.14-1.14-2.29-2.27-3.43-3.42-3.08-3.07-6.16-6.14-9.23-9.22-2.57-2.58-5.15-5.15-7.73-7.72-6.08-6.08-12.16-12.15-18.24-18.24-6.25-6.26-12.51-12.51-18.78-18.75-5.39-5.38-10.78-10.76-16.17-16.15-3.21-3.21-6.42-6.42-9.64-9.62-3.03-3.01-6.04-6.04-9.05-9.06-1.1-1.1-2.21-2.21-3.31-3.3-9.26-9.19-17.89-18.45-18.09-32.2,0-.68.02-1.35.02-2.05,0-.71.02-1.43.02-2.16.4-15.19,10.3-24.5,20.47-34.59,1.14-1.14,2.27-2.27,3.41-3.41,3.07-3.07,6.13-6.12,9.21-9.18,3.22-3.2,6.42-6.41,9.64-9.62,6.08-6.07,12.15-12.13,18.24-18.19,6.93-6.9,13.85-13.81,20.77-20.72,14.23-14.2,28.46-28.4,42.71-42.59,2.9,1.37,4.83,2.98,7.12,5.24.37.37.75.74,1.14,1.11,1.22,1.21,2.45,2.42,3.67,3.63.85.84,1.7,1.69,2.56,2.53,1.78,1.77,3.56,3.54,5.34,5.31,2.28,2.27,4.57,4.53,6.87,6.77,1.76,1.74,3.52,3.48,5.26,5.22.84.84,1.69,1.67,2.54,2.5,1.18,1.16,2.35,2.33,3.52,3.5.67.67,1.34,1.33,2.03,2.01.89,1.28,1.28,2.65,1.17,4.1-.6,1.74-1.21,3.46-1.87,5.18-3.47,10.32-1.93,20.24,2.4,30.02,5.45,10.34,14.07,16.5,25.06,20.02,10.89,2.75,21.52.41,31.16-5.07,1.22-.76,2.28-1.62,3.18-2.59.71-.71,1.61-1.06,2.69-1.06.2-.45.41-.9.61-1.37.68-1.25,1.52-2.49,2.54-3.73,6.95-8.91,9.05-18.71,8.21-29.78-1.68-9.83-6.16-19.01-14.23-25.07-9.64-6.4-19.71-9.9-31.33-7.7-4.08,1.01-8.05,2.23-12.03,3.57-5.21-5.12-10.41-10.24-15.59-15.38-2.41-2.38-4.82-4.77-7.24-7.14-2.34-2.29-4.66-4.59-6.98-6.89-.88-.88-1.78-1.75-2.67-2.63-1.25-1.22-2.48-2.45-3.72-3.69-.71-.7-1.42-1.4-2.14-2.12-.94-1.27-1.43-2.44-1.46-3.52,1.21-2.28,2.77-3.84,4.58-5.68.39-.39.77-.79,1.17-1.18,1.28-1.29,2.56-2.58,3.85-3.86.89-.9,1.79-1.8,2.68-2.69,1.87-1.88,3.76-3.76,5.65-5.64,2.41-2.4,4.8-4.81,7.2-7.22,1.85-1.86,3.7-3.72,5.56-5.56.88-.88,1.77-1.78,2.64-2.66,1.23-1.25,2.48-2.48,3.73-3.72.71-.71,1.41-1.41,2.14-2.13,5.39-4.4,11.16-5.65,17.68-2.73h0Z"/>
  <path class="cls-2" d="M519.31,360.1c5.65,3.32,9.6,7.88,13.85,12.81,1.12,1.27,2.26,2.52,3.42,3.76,14.38,15.34,26.26,32.27,25.96,53.82-.18,4.89-1.15,8.84-3.47,13.17-.36.7-.71,1.39-1.07,2.1-5.61,10.19-14.81,16.9-25.8,20.55-11.75,2.95-23.25,1.66-33.97-4.01-10.22-6.32-16.47-14-20.39-25.4-3.29-14.1.69-27.16,8.09-39.21,7.16-11.06,16-20.34,25.33-29.58.79-.79,1.57-1.57,2.36-2.35,1.9-1.89,3.8-3.77,5.7-5.66h0Z"/>
  <path class="cls-2" d="M192.41,131.35c4.83,2.73,8.47,6.63,12.35,10.54.74.74,1.48,1.48,2.23,2.23,2.01,2.01,4.02,4.02,6.02,6.04,2.1,2.11,4.2,4.21,6.3,6.32,3.97,3.98,7.95,7.97,11.92,11.96,4.53,4.54,9.05,9.08,13.58,13.61,9.31,9.33,18.62,18.66,27.91,27.99-1.35,2.86-2.9,4.7-5.15,6.94-.69.68-1.38,1.37-2.09,2.08-.72.71-1.45,1.42-2.19,2.14-.73.72-1.45,1.44-2.21,2.18-1.79,1.78-3.59,3.55-5.4,5.32-4.57-3.8-8.79-7.86-12.99-12.05-.71-.71-1.42-1.42-2.15-2.14-1.93-1.92-3.86-3.84-5.79-5.78-1.21-1.2-2.42-2.41-3.63-3.61-3.78-3.77-7.57-7.54-11.35-11.32-4.36-4.35-8.71-8.7-13.08-13.04-3.38-3.37-6.76-6.73-10.13-10.11-2.01-2.01-4.02-4.02-6.04-6.03-2.25-2.23-4.49-4.47-6.72-6.72-.67-.66-1.34-1.32-2.03-2-.61-.62-1.22-1.22-1.84-1.86-.53-.53-1.07-1.06-1.61-1.6-2.6-3.2-3.33-6.4-3.2-10.5.61-4.01,2.7-6.59,5.58-9.32,3.87-1.75,7.53-2.06,11.71-1.27Z"/>
  <path class="cls-2" d="M359.65,288.42c3.79,2.14,5.97,4.86,8.16,8.61,1.36,5.46,1.17,10.49-1.66,15.41-2.97,4.13-6.51,6.25-11.57,7.1-6.65.08-10.37-1.57-15.21-6.18-2.51-3.24-3.31-6.8-3.45-10.85.72-5.14,2.26-8.97,6.49-12.17,5.56-3.68,11.02-4.7,17.24-1.93h0Z"/>
</svg>