<?xml version="1.0" encoding="UTF-8"?>
<svg id="Layer_1" data-name="Layer 1" xmlns="http://www.w3.org/2000/svg" viewBox="0 0 666.67 666.67">
  <defs>
    <style>
      .cls-1 {
        fill: none;
        stroke: #ffffff;
        stroke-linecap: round;
        stroke-linejoin: round;
        stroke-width: 25px;
      }

      .cls-2 {
        fill: #ffffff;
        stroke-width: 0px;
      }
    </style>
  </defs>
  <path class="cls-1" d="M633.33,333.33c0,165.69-134.31,300-300,300S33.33,499.02,33.33,333.33,167.65,33.33,333.33,33.33s300,134.31,300,300Z"/>
  <path class="cls-2" d="M407.66,386.27c-21.17,0-37.05,7.94-52.93,21.17l-84.69-47.64c2.65-7.94,5.29-18.53,5.29-26.47s-2.65-18.53-5.29-26.47l84.69-47.64c15.88,13.23,31.76,21.17,52.93,21.17,44.99,0,79.4-34.41,79.4-79.4s-34.41-79.4-79.4-79.4-79.4,34.41-79.4,79.4v13.23l-92.63,50.29c-10.59-5.29-23.82-10.59-39.7-10.59-42.35,0-79.4,34.41-79.4,79.4h0c0,42.35,37.05,79.4,79.4,79.4,15.88,0,29.11-5.29,39.7-10.59l92.63,50.29v13.23c0,44.99,34.41,79.4,79.4,79.4s79.4-34.41,79.4-79.4-34.41-79.4-79.4-79.4Z"/>
</svg>