<?xml version="1.0" encoding="UTF-8"?>
<svg id="Layer_1" data-name="Layer 1" xmlns="http://www.w3.org/2000/svg" viewBox="0 0 666.67 666.67">
  <defs>
    <style>
      .cls-1 {
        fill: none;
        stroke: #ffffff;
        stroke-linecap: round;
        stroke-linejoin: round;
        stroke-width: 25px;
      }

      .cls-2 {
        fill: #ffffff;
        stroke-width: 0px;
      }
    </style>
  </defs>
  <path class="cls-1" d="M633.33,333.33c0,165.69-134.31,300-300,300S33.33,499.02,33.33,333.33,167.65,33.33,333.33,33.33s300,134.31,300,300Z"/>
  <g>
    <path class="cls-2" d="M548.15,253.88l-371.05-.64c-1.92,0-3.45,1.53-3.45,3.45l-.32,184.69c0,1.92,1.53,3.45,3.45,3.45h18.48v23.79c0,1.92,1.53,3.45,3.45,3.45h0l113.77.19c1.92,0,3.45-1.53,3.45-3.45h0v-23.79h9.27v23.79c0,1.92,1.53,3.45,3.45,3.45h0l163.01.32c1.92,0,3.45-1.53,3.45-3.45v-23.79l52.7.06c8.12,0,14.77-6.59,14.77-14.71l.32-162.18c0-8.12-6.59-14.71-14.71-14.77l-.06.13ZM547.64,383.12c0,2.88-2.37,5.18-5.18,5.18s-5.18-2.3-5.18-5.18,2.3-5.18,5.18-5.18,5.18,2.37,5.18,5.18ZM193.53,419.51c2.88,0,5.18,2.37,5.18,5.18s-2.37,5.18-5.18,5.18-5.18-2.3-5.18-5.18,2.3-5.18,5.18-5.18h0ZM188.61,273.45c0-2.88,2.3-5.18,5.18-5.18s5.18,2.3,5.18,5.18-2.3,5.18-5.18,5.18h0c-2.88,0-5.18-2.3-5.18-5.18h0ZM221.55,349.1c.06-38.24,31.14-69.26,69.45-69.2,38.24.06,69.26,31.14,69.2,69.45-.06,38.31-31.14,69.26-69.45,69.2h0c-38.24-.06-69.26-31.14-69.2-69.45h0ZM390.38,349.42c.06-38.24,31.14-69.26,69.45-69.2,38.24.06,69.26,31.14,69.2,69.45-.06,38.24-31.14,69.26-69.45,69.2h0c-38.24-.06-69.26-31.14-69.2-69.45Z"/>
    <path class="cls-2" d="M340.5,347.06l-16.56-.9,14.9-13.49c1.09-.96,1.41-2.56.9-3.9-4.28-10.23-11.7-18.93-21.17-24.69-1.6-.96-3.71-.51-4.73,1.09l-9.02,13.88-4.22-19.63c-.32-1.41-1.47-2.49-2.94-2.69-2.24-.26-4.48-.45-6.71-.45-8.83,0-17.59,2.17-25.32,6.4-1.66.9-2.3,2.94-1.41,4.6l7.55,14.77-19.12-6.14c-1.41-.45-2.94,0-3.84,1.22-6.78,8.83-10.55,19.63-10.81,30.76,0,1.85,1.41,3.45,3.26,3.52l16.56.9-14.9,13.49c-1.09.96-1.41,2.56-.9,3.9,4.28,10.3,11.7,18.93,21.17,24.75,1.6.96,3.71.51,4.73-1.09l9.02-13.94,4.22,19.63c.32,1.47,1.47,2.56,2.94,2.69,2.24.26,4.41.45,6.65.45,8.89,0,17.59-2.17,25.39-6.4,1.66-.9,2.24-2.94,1.41-4.6l-7.55-14.77,19.12,6.14c1.41.45,2.94,0,3.84-1.22,6.78-8.83,10.55-19.57,10.81-30.7,0-1.85-1.41-3.45-3.26-3.52v-.06Z"/>
    <path class="cls-2" d="M509.33,347.38l-16.56-.9,14.9-13.49c1.09-.96,1.41-2.56.9-3.9-4.28-10.23-11.7-18.93-21.17-24.69-1.6-.96-3.71-.51-4.73,1.09l-9.02,13.88-4.22-19.63c-.32-1.41-1.47-2.49-2.94-2.69-2.24-.26-4.48-.45-6.71-.45-8.83,0-17.59,2.17-25.32,6.4-1.66.9-2.3,2.94-1.41,4.6l7.55,14.77-19.12-6.14c-1.41-.45-2.94,0-3.84,1.22-6.78,8.83-10.55,19.63-10.81,30.76,0,1.85,1.41,3.45,3.26,3.52l16.56.9-14.9,13.49c-1.09.96-1.41,2.56-.9,3.9,4.28,10.3,11.7,18.93,21.17,24.75,1.6.96,3.71.51,4.73-1.09l9.02-13.94,4.22,19.63c.32,1.47,1.47,2.56,2.94,2.69,2.17.26,4.41.45,6.65.45,8.89,0,17.59-2.17,25.39-6.4,1.66-.9,2.24-2.94,1.41-4.6l-7.55-14.77,19.12,6.14c1.41.45,2.94,0,3.84-1.22,6.78-8.83,10.55-19.57,10.81-30.7,0-1.85-1.41-3.45-3.26-3.52v-.06Z"/>
    <path class="cls-2" d="M152.8,202.01h-32.74c-1.92,0-3.52,1.53-3.52,3.45v15.09c0,1.92,1.53,3.45,3.45,3.45h24.81l-.06,45.85h-18.16c-1.92,0-3.45,1.53-3.45,3.45v49.18c-.06,1.92,1.47,3.45,3.39,3.45h18.1v10.74h-18.16c-1.92,0-3.45,1.53-3.45,3.45l-.13,84.42c0,1.92,1.53,3.45,3.45,3.45h18.1l-.06,40.55c0,1.92,1.53,3.45,3.45,3.45h15.09c1.92,0,3.45-1.53,3.45-3.45h0l.45-248v-4.48c0-7.67-6.27-14.01-14.01-14.07h0Z"/>
  </g>
</svg>