<?xml version="1.0" encoding="UTF-8"?>
<svg id="Layer_1" data-name="Layer 1" xmlns="http://www.w3.org/2000/svg" viewBox="0 0 666.67 666.67">
  <defs>
    <style>
      .cls-1 {
        fill: none;
        stroke: #ffffff;
        stroke-linecap: round;
        stroke-linejoin: round;
        stroke-width: 25px;
      }

      .cls-2 {
        fill: #ffffff;
        fill-rule: evenodd;
        stroke-width: 0px;
      }
    </style>
  </defs>
  <path class="cls-1" d="M633.33,333.33c0,165.69-134.31,300-300,300S33.33,499.02,33.33,333.33,167.65,33.33,333.33,33.33s300,134.31,300,300Z"/>
  <path class="cls-2" d="M281.4,148.26c3.56-3.56,8.4-5.57,13.44-5.57h152.04c31.49,0,57.01,25.53,57.01,57.01v57.01c0,10.5-8.51,19-19,19s-19-8.51-19-19v-57.01c0-10.5-8.51-19-19-19h-133.03v95.02c0,10.5-8.51,19-19,19h-95.02v209.05c0,10.5,8.51,19,19,19h95.02c10.5,0,19,8.51,19,19s-8.51,19-19,19h-95.02c-31.49,0-57.01-25.53-57.01-57.01v-228.06c0-5.04,2-9.87,5.57-13.44l114.03-114.03ZM226.69,256.73h49.14v-49.14l-49.14,49.14ZM451.63,518.04c0,13.12-10.64,23.76-23.76,23.76s-23.76-10.64-23.76-23.76,10.64-23.76,23.76-23.76,23.76,10.64,23.76,23.76ZM392.43,370.08c5.03-9.59,18.01-18.33,35.44-18.33,24.38,0,38.01,15.86,38.01,28.51s-13.63,28.51-38.01,28.51c-10.5,0-19,8.51-19,19v19c0,10.5,8.51,19,19,19s19-8.51,19-19v-2.16c31.01-7.09,57.01-31.16,57.01-64.36,0-39.83-37.43-66.52-76.02-66.52-29.33,0-56.54,14.72-69.1,38.69-4.87,9.3-1.29,20.78,8.01,25.66,9.3,4.87,20.78,1.29,25.66-8.01Z"/>
</svg>