<?xml version="1.0" encoding="iso-8859-1"?>
<!-- Uploaded to: SVG Repo, www.svgrepo.com, Generator: SVG Repo Mixer Tools -->
<svg fill="#ffffff" version="1.1" id="Layer_1" xmlns="http://www.w3.org/2000/svg" xmlns:xlink="http://www.w3.org/1999/xlink" 
	viewBox="0 0 490 490" xml:space="preserve">
<g>
	<g>
		<g>
			<path d="M470,235v155h-15V137h-70v273h70h25c5.523,0,10-4.477,10-10V235H470z"/>
			<path d="M429.231,56.154C427.678,52.427,424.037,50,420,50s-7.678,2.427-9.231,6.154L386.25,115h67.5L429.231,56.154z"/>
			<path d="M385,480c0,5.523,4.477,10,10,10h50c5.523,0,10-4.477,10-10v-48h-70V480z"/>
			<rect x="85" y="375" width="30" height="30"/>
			<rect x="85" y="265" width="30" height="30"/>
			<rect x="85" y="155" width="30" height="30"/>
			<path d="M274.999,105H265h-12h-0.001V0H10C4.477,0,0,4.477,0,10v470c0,5.523,4.477,10,10,10h340c5.523,0,10-4.477,10-10V105h-10
				H274.999z M150,140h50v20h-50V140z M150,250h50v20h-50V250z M150,360h50v20h-50V360z M135,415c0,5.523-4.477,10-10,10H75
				c-5.523,0-10-4.477-10-10v-50c0-5.523,4.477-10,10-10h50c5.523,0,10,4.477,10,10V415z M135,305c0,5.523-4.477,10-10,10H75
				c-5.523,0-10-4.477-10-10v-50c0-5.523,4.477-10,10-10h50c5.523,0,10,4.477,10,10V305z M135,195c0,5.523-4.477,10-10,10H75
				c-5.523,0-10-4.477-10-10v-50c0-5.523,4.477-10,10-10h50c5.523,0,10,4.477,10,10V195z M285,420H150v-20h135V420z M285,310H150
				v-20h135V310z M285,200H150v-20h135V200z"/>
			<polygon points="274.999,5.857 274.999,83 352.143,83 			"/>
		</g>
	</g>
</g>
</svg>