<?xml version="1.0" encoding="UTF-8"?>
<svg id="Layer_1" data-name="Layer 1" xmlns="http://www.w3.org/2000/svg" viewBox="0 0 80 25">
  <defs>
    <style>
      .cls-1 {
        fill: #ffffff;
        stroke-width: 0px;
      }
    </style>
  </defs>
  <path class="cls-1" d="M76.9,16.6h3.1V1.9h-5.4c-.5,0-.9-.4-.9-.9V0H0v9.4c1.7,0,3.1,1.4,3.1,3.1s-1.4,3.1-3.1,3.1v9.4h73.6v-1c0-.5.4-.9.9-.9h5.5v-4.1h-3.1c-.5,0-.9-.4-.9-.9v-.3c-.1-.8.3-1.2.9-1.2ZM77.4,2.6h1.7c.2,0,.4.2.4.4s-.2.4-.4.4h-1.7c-.2,0-.4-.2-.4-.4s.2-.4.4-.4ZM77.4,3.8h1.7c.2,0,.4.2.4.4s-.2.4-.4.4h-1.7c-.2,0-.4-.2-.4-.4s.2-.4.4-.4ZM77.4,5.1h1.7c.2,0,.4.2.4.4s-.2.4-.4.4h-1.7c-.2,0-.4-.2-.4-.4s.2-.4.4-.4ZM77.4,6.3h1.7c.2,0,.4.2.4.4s-.2.4-.4.4h-1.7c-.2,0-.4-.2-.4-.4s.2-.4.4-.4ZM77.4,7.6h1.7c.2,0,.4.2.4.4,0,.1,0,.2-.1.3s-.2.1-.3.1h-1.7c-.1,0-.2,0-.3-.1-.1-.1-.1-.2-.1-.3,0-.2.2-.4.4-.4ZM77.4,8.8h1.7c.2,0,.4.2.4.4s-.2.4-.4.4h-1.7c-.2,0-.4-.2-.4-.4s.2-.4.4-.4ZM77.4,10h1.7c.2,0,.4.2.4.4s-.2.4-.4.4h-1.7c-.2,0-.4-.2-.4-.4s.2-.4.4-.4ZM77.4,11.3h1.7c.2,0,.4.2.4.4,0,.1,0,.2-.1.3s-.2.1-.3.1h-1.7c-.1,0-.2,0-.3-.1-.1-.1-.1-.2-.1-.3,0-.2.2-.4.4-.4ZM77.4,12.5h1.7c.2,0,.4.2.4.4s-.2.5-.4.5h-1.7c-.2,0-.4-.2-.4-.4s.2-.5.4-.5ZM77,14.2c0-.2.2-.4.4-.4h1.7c.2,0,.4.2.4.4h0c0,.1,0,.2-.1.3s-.2.1-.3.1h-1.7c-.1,0-.2,0-.3-.1,0-.1-.1-.2-.1-.3h0ZM77,15.5c0-.2.2-.4.4-.4h1.7c.2,0,.4.2.4.4h0c0,.2-.2.4-.4.4h-1.7c-.2,0-.4-.2-.4-.4h0ZM1,17.5v-1.3c1.7-.4,3-2,3-3.8s-1.3-3.4-3-3.8v-1.3c2.4.5,4.2,2.6,4.2,5.1s-1.8,4.6-4.2,5.1ZM74.1,22.1h-.3V2.6h.3v19.5ZM77.4,19.2h1.7c.2,0,.4.2.4.4s-.2.4-.4.4h-1.7c-.2,0-.4-.2-.4-.4s.2-.4.4-.4ZM77,20.9c0-.2.2-.4.4-.4h1.7c.2,0,.4.2.4.4h0c0,.1,0,.2-.1.3s-.2.1-.3.1h-1.7c-.1,0-.2,0-.3-.1,0-.1-.1-.2-.1-.3h0ZM77,22.1c0-.2.2-.4.4-.4h1.7c.2,0,.4.2.4.4h0c0,.2-.2.4-.4.4h-1.7c-.2.1-.4-.1-.4-.4h0Z"/>
</svg>