<?xml version="1.0" encoding="UTF-8"?>
<svg id="Layer_1" data-name="Layer 1" xmlns="http://www.w3.org/2000/svg" viewBox="0 0 512.75 499.01">
  <defs>
    <style>
      .cls-1 {
        fill: #fff;
        stroke-width: 0px;
      }
    </style>
  </defs>
  <path class="cls-1" d="M245.53,65.39c3.94,2.28,6.97,5.61,10.15,8.82.8.79,1.6,1.58,2.42,2.4,2.67,2.65,5.33,5.32,7.98,7.99,1.91,1.91,3.83,3.81,5.74,5.72,4.66,4.63,9.3,9.28,13.94,13.93,3.77,3.78,7.55,7.55,11.32,11.32q.81.81,1.63,1.63c1.09,1.09,2.18,2.18,3.28,3.27,10.24,10.22,20.46,20.45,30.68,30.69,9.36,9.37,18.73,18.73,28.11,28.08,9.63,9.6,19.25,19.21,28.86,28.83,1.09,1.09,2.17,2.17,3.26,3.26.53.53,1.07,1.07,1.62,1.62,3.77,3.77,7.55,7.54,11.33,11.31,4.6,4.58,9.19,9.18,13.78,13.78,2.34,2.35,4.68,4.69,7.04,7.03,2.54,2.53,5.07,5.07,7.6,7.62q1.13,1.11,2.28,2.25t2.03,2.07,1.78,1.78q1.11,1.74,1.02,3.71c-1.13,2.53-2.52,4.02-4.48,5.98-.77.78-1.55,1.56-2.34,2.36-.86.85-1.72,1.7-2.6,2.58-.9.91-1.81,1.82-2.74,2.75-2.51,2.53-5.04,5.04-7.56,7.56-2.72,2.71-5.43,5.44-8.15,8.16-5.32,5.33-10.65,10.66-15.98,15.98-4.33,4.33-8.67,8.66-13,12.99-.62.62-1.23,1.23-1.87,1.87-1.25,1.25-2.5,2.5-3.75,3.76-11.74,11.75-23.5,23.49-35.25,35.23-10.08,10.06-20.15,20.14-30.21,30.21-11.69,11.7-23.38,23.4-35.08,35.09-1.25,1.25-2.5,2.5-3.75,3.75-.61.61-1.23,1.23-1.86,1.86-4.32,4.32-8.64,8.64-12.96,12.97-5.27,5.28-10.54,10.55-15.83,15.82-2.69,2.68-5.38,5.37-8.07,8.07-2.92,2.93-5.84,5.84-8.77,8.75-.84.84-1.68,1.69-2.54,2.56-11.17,11.06-22.1,18.02-38.12,18.22-20.55-.28-32.69-12.74-46.36-26.45-1.41-1.4-2.82-2.8-4.23-4.21-3.8-3.78-7.59-7.57-11.38-11.37-3.17-3.18-6.35-6.35-9.53-9.52-7.5-7.49-14.99-14.98-22.48-22.48-7.71-7.72-15.42-15.42-23.15-23.12-6.65-6.63-13.29-13.27-19.93-19.91-3.96-3.96-7.91-7.91-11.88-11.86-3.73-3.71-7.45-7.44-11.16-11.17-1.36-1.36-2.72-2.72-4.08-4.07-11.42-11.33-22.06-22.74-22.3-39.69.01-.84.02-1.67.03-2.53,0-.88.02-1.76.03-2.66.49-18.72,12.7-30.2,25.24-42.64,1.4-1.4,2.8-2.8,4.2-4.2,3.78-3.78,7.56-7.55,11.35-11.32,3.97-3.95,7.92-7.9,11.88-11.86,7.49-7.48,14.98-14.95,22.48-22.42,8.54-8.51,17.07-17.02,25.6-25.54,17.54-17.51,35.09-35.01,52.65-52.5,3.58,1.69,5.95,3.67,8.78,6.46q.69.68,1.4,1.37c1.51,1.49,3.02,2.98,4.53,4.47,1.05,1.04,2.1,2.08,3.15,3.12,2.2,2.18,4.39,4.36,6.58,6.54,2.81,2.8,5.64,5.58,8.47,8.35,2.17,2.14,4.34,4.29,6.49,6.44,1.04,1.03,2.08,2.06,3.13,3.08,1.46,1.43,2.9,2.87,4.34,4.32.83.82,1.65,1.64,2.5,2.48q1.64,2.37,1.44,5.05c-.74,2.14-1.49,4.27-2.3,6.39-4.28,12.72-2.38,24.95,2.96,37.01,6.72,12.75,17.35,20.34,30.89,24.68,13.43,3.39,26.53.51,38.41-6.25q2.25-1.4,3.92-3.19,1.32-1.31,3.32-1.31c.25-.56.5-1.11.75-1.69q1.25-2.31,3.13-4.6c8.57-10.99,11.16-23.07,10.12-36.71-2.07-12.12-7.6-23.44-17.54-30.91-11.88-7.89-24.3-12.21-38.62-9.49-5.03,1.24-9.92,2.75-14.83,4.4-6.42-6.31-12.83-12.62-19.22-18.96-2.97-2.94-5.94-5.88-8.92-8.8-2.88-2.82-5.74-5.66-8.6-8.5-1.09-1.08-2.19-2.16-3.29-3.24-1.54-1.5-3.06-3.02-4.58-4.55-.87-.86-1.75-1.72-2.64-2.61q-1.74-2.34-1.8-4.34c1.49-2.81,3.41-4.74,5.65-7,.48-.48.95-.97,1.44-1.46,1.58-1.59,3.16-3.18,4.75-4.76,1.1-1.11,2.21-2.22,3.31-3.32,2.31-2.32,4.63-4.64,6.96-6.95,2.97-2.96,5.92-5.93,8.87-8.9,2.28-2.29,4.56-4.58,6.85-6.86,1.09-1.09,2.18-2.19,3.26-3.28,1.52-1.54,3.06-3.06,4.6-4.59.87-.87,1.74-1.74,2.64-2.63,6.64-5.42,13.76-6.96,21.79-3.36Z"/>
  <path class="cls-1" d="M459.47,282.51c6.96,4.09,11.84,9.71,17.07,15.79,1.38,1.57,2.78,3.11,4.21,4.63,17.73,18.91,32.37,39.78,32,66.35-.22,6.03-1.42,10.9-4.28,16.23-.44.86-.87,1.71-1.32,2.59-6.92,12.56-18.26,20.84-31.8,25.34-14.48,3.64-28.66,2.05-41.88-4.94-12.6-7.79-20.3-17.26-25.14-31.31-4.05-17.38.85-33.48,9.97-48.34,8.83-13.63,19.73-25.08,31.23-36.47.97-.97,1.94-1.93,2.91-2.9,2.34-2.33,4.68-4.65,7.03-6.98Z"/>
  <path class="cls-1" d="M56.47.51c5.95,3.37,10.44,8.17,15.22,12.99.91.91,1.82,1.82,2.75,2.75,2.48,2.48,4.95,4.96,7.42,7.44,2.59,2.6,5.18,5.19,7.77,7.79,4.9,4.91,9.8,9.82,14.69,14.74,5.58,5.6,11.16,11.19,16.74,16.78,11.48,11.5,22.95,23,34.41,34.51-1.66,3.52-3.57,5.8-6.35,8.55-.85.84-1.7,1.69-2.58,2.56q-1.33,1.31-2.7,2.64c-.9.89-1.79,1.78-2.72,2.69-2.21,2.19-4.43,4.38-6.66,6.56-5.63-4.69-10.84-9.69-16.02-14.86q-1.31-1.31-2.65-2.64c-2.38-2.37-4.76-4.74-7.14-7.12-1.49-1.48-2.98-2.97-4.47-4.45-4.66-4.65-9.33-9.3-13.99-13.96-5.37-5.36-10.74-10.72-16.12-16.07-4.17-4.15-8.33-8.3-12.49-12.46-2.48-2.48-4.96-4.96-7.45-7.43-2.77-2.75-5.53-5.51-8.29-8.28-.82-.81-1.65-1.63-2.5-2.47-.75-.76-1.5-1.51-2.27-2.29q-.98-.98-1.98-1.97c-3.21-3.94-4.1-7.89-3.94-12.95.75-4.94,3.33-8.12,6.88-11.49C46.8-.09,51.31-.47,56.47.51Z"/>
  <path class="cls-1" d="M256.72,194.14c4.67,2.64,7.36,5.99,10.06,10.62,1.68,6.73,1.44,12.93-2.05,19-3.66,5.09-8.03,7.71-14.26,8.75-8.2.1-12.79-1.93-18.75-7.62-3.1-4-4.08-8.38-4.25-13.38.89-6.34,2.79-11.06,8-15,6.85-4.54,13.59-5.8,21.25-2.38Z"/>
</svg>