<?xml version="1.0" encoding="iso-8859-1"?>
<!-- Uploaded to: SVG Repo, www.svgrepo.com, Generator: SVG Repo Mixer Tools -->
<svg fill="#ffffff" height="800px" width="800px" version="1.1" id="Layer_1" xmlns="http://www.w3.org/2000/svg" xmlns:xlink="http://www.w3.org/1999/xlink" 
	viewBox="0 0 512 512" xml:space="preserve">
<g>
	<g>
		<path d="M256,118.085c-37.276,0-67.603,30.327-67.603,67.603s30.327,67.603,67.603,67.603c37.277,0,67.603-30.327,67.603-67.603
			S293.277,118.085,256,118.085z M256,233.013c-26.096,0-47.325-21.23-47.325-47.325c0-26.095,21.229-47.325,47.325-47.325
			s47.325,21.229,47.325,47.325S282.096,233.013,256,233.013z"/>
	</g>
</g>
<g>
	<g>
		<path d="M256,168.78c-9.323,0-16.908,7.585-16.908,16.908c0,9.323,7.585,16.908,16.908,16.908c9.323,0,16.908-7.585,16.908-16.908
			C272.908,176.365,265.324,168.78,256,168.78z"/>
	</g>
</g>
<g>
	<g>
		<path d="M256,0C153.612,0,70.312,83.299,70.312,185.688c0,49.027,18.934,95.274,53.313,130.219l2.729,2.769
			c10.725,11.278,19.352,24.172,25.64,38.164h208.012v0c6.259-13.929,14.836-26.769,25.492-38.009l2.876-2.924
			c34.38-34.944,53.313-81.191,53.313-130.219C441.688,83.299,358.388,0,256,0z M380.021,200.896h-27.182
			c-2.456,15.697-8.653,30.169-17.644,42.479l19.254,19.254l-21.508,21.508l-19.254-19.254
			c-12.309,8.99-26.781,15.187-42.479,17.644v27.181h-30.417v0v-27.181c-15.697-2.456-30.169-8.653-42.479-17.644l-19.254,19.254
			l-21.508-21.508l19.254-19.254c-8.99-12.31-15.188-26.781-17.644-42.479H131.98v-30.417h27.181
			c2.456-15.697,8.653-30.169,17.644-42.479l-19.254-19.254l21.508-21.508l19.254,19.254c12.309-8.99,26.781-15.187,42.479-17.644
			V61.668h30.417v27.181c15.697,2.456,30.17,8.653,42.479,17.644l19.254-19.254l21.508,21.508L335.195,128
			c8.991,12.31,15.187,26.781,17.644,42.479h27.182V200.896z"/>
	</g>
</g>
<g>
	<g>
		<path d="M145.311,387.257v33.267c0,13.992,10.74,25.518,24.41,26.779v17.869c0,25.82,21.007,46.827,46.827,46.827h78.904
			c25.821,0,46.828-21.007,46.828-46.827v-17.869c13.668-1.26,24.409-12.787,24.409-26.779v-33.267H145.311z"/>
	</g>
</g>
</svg>