<?xml version="1.0" encoding="utf-8"?>

<!-- Uploaded to: SVG Repo, www.svgrepo.com, Generator: SVG Repo Mixer Tools -->
<svg fill="#ffffff" height="800px" width="800px" version="1.1" id="Icons" xmlns="http://www.w3.org/2000/svg" xmlns:xlink="http://www.w3.org/1999/xlink" 
	 viewBox="0 0 32 32" xml:space="preserve">
<g>
	<path d="M20.6,20.7c-0.3,0-0.5-0.1-0.7-0.3l-8.1-8.1c-0.2-0.2-0.3-0.4-0.3-0.7c0-0.3,0.1-0.5,0.3-0.7l0.7-0.7
		c1.3-1.3,3.2-1.5,4.7-0.6l6.1-6.1c0.8-0.8,2-1.2,3.1-1.1c1.2,0.1,2.2,0.7,2.8,1.7c1,1.5,0.8,3.6-0.6,5l-6,6
		c0.3,0.6,0.5,1.2,0.5,1.9c0,1-0.4,2-1.1,2.7l-0.7,0.7C21.1,20.6,20.8,20.7,20.6,20.7z"/>
</g>
<path d="M18.5,21.8l-8.1-8.1c-0.1-0.1-0.2-0.2-0.3-0.4c-2.3,1.9-5.3,3.2-8.2,3.6c-0.4,0.1-0.7,0.3-0.8,0.7c-0.1,0.4,0,0.8,0.2,1
	l11.5,11.5c0.2,0.2,0.4,0.3,0.7,0.3c0,0,0.1,0,0.1,0c0.3,0,0.6-0.2,0.7-0.5l4.9-7.6C19,22.3,18.7,22.1,18.5,21.8z"/>
</svg>